<svg enable-background="new 0 0 30 30" height="40" viewBox="0 0 30 30" width="40" xmlns="http://www.w3.org/2000/svg"><path d="m28.7 10.2c-2.5-3-7.6-4.8-13.7-4.8-6 0-11.2 1.8-13.7 4.8-1 1.2-1.4 2.6-1.1 4 .2 1.2 1 2.3 2 2.8.6.3 1.3.4 1.9.4.3 0 .7 0 1-.1-.2.6-.3 1.2-.4 1.9-.2 1.8.1 3.1 1 4.1 1 1.2 2.6 1.3 3.2 1.3h.3 11.7c1.3 0 2.5-.5 3.2-1.4 1-1.2 1.2-2.9 1.1-4-.1-.6-.2-1.3-.4-1.9.3.1.7.1 1.1.1.6 0 1.3-.1 1.9-.4 1-.5 1.8-1.6 2-2.8.2-1.4-.1-2.9-1.1-4zm-5.7 12c-.5.6-1.2.9-2.1.9h-11.8c-.1 0-1.5.1-2.3-.8-.5-.6-.7-1.6-.6-2.9.5-4 3.2-6.4 3.7-6.8 1.4-1.1 3.3-1.8 5.2-1.8s3.6.6 4.9 1.8c1.9 1.6 3.3 4.3 3.7 6.8.1.8 0 2-.7 2.8zm5.3-8.3c-.2.8-.6 1.5-1.3 1.8-1.1.6-2.6.1-3-.1-.7-1.6-1.8-3-3.1-4.1-1.6-1.4-3.7-2.1-5.9-2.1s-4.4.8-6.1 2.1c-.4.3-2.1 1.8-3.2 4.2-.5.2-1.8.6-2.8 0-.6-.3-1.1-1-1.3-1.8-.2-.9.1-1.9.8-2.7 2.3-2.7 7-4.3 12.6-4.3s10.3 1.6 12.5 4.3c.7.8 1 1.7.8 2.7zm-13.3-1.5c-2.2 0-4.1 1.6-4.1 3.5s1.8 3.5 4.1 3.5c2.2 0 4.1-1.6 4.1-3.5s-1.9-3.5-4.1-3.5zm0 5.5c-1.4 0-2.6-.9-2.6-2s1.1-2 2.6-2c1.4 0 2.6.9 2.6 2s-1.2 2-2.6 2z" fill="#ffa400"/></svg>